# xmcd CD database file
#
# Track frame offsets:
#	150
#	21484
#	39033
#	53878
#
# Disc length: 988 seconds
#
# Revision: 2
# Processed by: cddbd v1.5.1PL2 Copyright (c) Steve Scherf et al.
# Submitted via: CDex 1.51
#
DISCID=2903da04
DTITLE=Νότης Σφακιανάκης - Προ δια φήμην
DYEAR=1997
DGENRE=Folk
TTITLE0=Γύφτισσα μέρα
TTITLE1=Σιγανές ψιχάλες
TTITLE2=Σήκω και φύγε
TTITLE3=Θέλω να σε ξαναδώ
EXTD=YEAR: 1997
EXTT0=
EXTT1=
EXTT2=
EXTT3=
PLAYORDER=
